<svg viewBox="0 0 98.2422 24" xmlns="http://www.w3.org/2000/svg" xmlns:xlink="http://www.w3.org/1999/xlink" width="98.242188" height="24.000000" fill="none" customFrame="#000000">
	<defs>
		<clipPath id="clipPath_0">
			<rect width="65.242188" height="24.000000" x="33.000000" y="0.000000" fill="rgb(255,255,255)" />
		</clipPath>
	</defs>
	<rect id="_Logo Placeholder" width="98.242188" height="24.000000" x="0.000000" y="0.000000" />
	<path id="Symbol" d="M12 24C18.6274 24 24 18.6274 24 12C24 5.37258 18.6274 0 12 0C5.37258 0 0 5.37258 0 12C0 18.6274 5.37258 24 12 24ZM12 18C15.3137 18 18 15.3137 18 12C18 8.68629 15.3137 6 12 6C8.68629 6 6 8.68629 6 12C6 15.3137 8.68629 18 12 18Z" fill="rgb(22,119,255)" fill-rule="evenodd" />
	<g id="Text Wrapper" clip-path="url(#clipPath_0)" customFrame="url(#clipPath_0)">
		<rect id="Text Wrapper" width="65.242188" height="24.000000" x="33.000000" y="0.000000" />
		<path id="Company" d="M37.6279 17.3701C34.7705 17.3701 33 15.3877 33 12.1885L33 12.1748C33 8.97559 34.7637 7 37.6279 7C39.9658 7 41.7158 8.49023 41.9072 10.5752L41.9072 10.6572L39.8975 10.6572L39.8975 10.6094C39.6855 9.50195 38.8037 8.75 37.6279 8.75C36.0762 8.75 35.1123 10.0557 35.1123 12.1748L35.1123 12.1885C35.1123 14.3076 36.0762 15.6201 37.6348 15.6201C38.8174 15.6201 39.6719 14.9297 39.8906 13.877L39.9043 13.8223L41.9141 13.8223L41.9072 13.8975C41.6953 15.9619 40.0068 17.3701 37.6279 17.3701ZM46.959 17.2744C44.6416 17.2744 43.2471 15.8047 43.2471 13.3574L43.2471 13.3438C43.2471 10.917 44.6621 9.42676 46.959 9.42676C49.2559 9.42676 50.6709 10.9102 50.6709 13.3438L50.6709 13.3574C50.6709 15.8115 49.2764 17.2744 46.959 17.2744ZM52.2979 17.1172L52.2979 9.59082L54.2939 9.59082L54.2939 10.7666L54.417 10.7666C54.7383 9.91895 55.5176 9.42676 56.502 9.42676C57.5273 9.42676 58.2861 9.94629 58.5938 10.8145L58.7168 10.8145C59.0586 9.98047 59.9336 9.42676 60.9863 9.42676C62.4834 9.42676 63.4199 10.3975 63.4199 11.9492L63.4199 17.1172L61.4238 17.1172L61.4238 12.4482C61.4238 11.5391 61.0137 11.0811 60.1797 11.0811C59.373 11.0811 58.8535 11.6758 58.8535 12.4893L58.8535 17.1172L56.8574 17.1172L56.8574 12.3594C56.8574 11.5527 56.3994 11.0811 55.6201 11.0811C54.8408 11.0811 54.2939 11.7168 54.2939 12.5781L54.2939 17.1172L52.2979 17.1172ZM76.4697 17.2334C75.0342 17.2334 74.0156 16.3447 74.0156 14.9775L74.0156 14.9639C74.0156 13.6104 75.0615 12.8174 76.9346 12.708L78.7529 12.5986L78.7529 11.9766C78.7529 11.3271 78.3086 10.958 77.4883 10.958C76.7705 10.958 76.3125 11.2109 76.1553 11.6553L76.1416 11.6826L74.2959 11.6826L74.3027 11.6211C74.46 10.3018 75.7041 9.42676 77.5977 9.42676C79.5938 9.42676 80.7217 10.3701 80.7217 11.9766L80.7217 17.1172L78.7529 17.1172L78.7529 16.1191L78.6299 16.1191C78.2471 16.8164 77.4541 17.2334 76.4697 17.2334ZM82.6768 17.1172L82.6768 9.59082L84.6729 9.59082L84.6729 10.7529L84.7959 10.7529C85.1377 9.93945 85.8828 9.42676 86.9561 9.42676C88.6309 9.42676 89.5332 10.4521 89.5332 12.25L89.5332 17.1172L87.5371 17.1172L87.5371 12.7012C87.5371 11.6416 87.0996 11.0811 86.1562 11.0811C85.2334 11.0811 84.6729 11.7441 84.6729 12.7627L84.6729 17.1172L82.6768 17.1172ZM65.3545 19.6123L65.3545 9.59082L67.3506 9.59082L67.3506 10.7529L67.4736 10.7529C67.8633 9.94629 68.6631 9.46777 69.7295 9.46777C71.6094 9.46777 72.7852 10.9443 72.7852 13.3438L72.7852 13.3574C72.7852 15.7773 71.6367 17.2334 69.7295 17.2334C68.6973 17.2334 67.8564 16.7344 67.4736 15.9141L67.3506 15.9141L67.3506 19.6123L65.3545 19.6123ZM92.1582 19.7695C91.9258 19.7695 91.6729 19.7627 91.4404 19.749L91.4404 18.2451C91.5771 18.2588 91.7754 18.2656 91.96 18.2656C92.6709 18.2656 93.0811 17.9922 93.2246 17.4043L93.293 17.1172L90.6475 9.59082L92.8418 9.59082L94.4209 15.292L94.5576 15.292L96.1367 9.59082L98.2422 9.59082L95.6787 17.1104C95.0088 19.0996 94.0176 19.7695 92.1582 19.7695ZM46.959 15.709C48.0186 15.709 48.627 14.8408 48.627 13.3574L48.627 13.3438C48.627 11.874 48.0117 10.9922 46.959 10.9922C45.8994 10.9922 45.291 11.874 45.291 13.3438L45.291 13.3574C45.291 14.8408 45.8926 15.709 46.959 15.709ZM69.0459 15.5791C70.0986 15.5791 70.7549 14.7383 70.7549 13.3574L70.7549 13.3438C70.7549 11.9629 70.1055 11.1221 69.0459 11.1221C67.9932 11.1221 67.3301 11.9629 67.3301 13.3438L67.3301 13.3574C67.3301 14.7383 68 15.5791 69.0459 15.5791ZM75.9639 14.8545C75.9639 15.4287 76.4492 15.7773 77.1396 15.7773C78.0625 15.7773 78.7529 15.1689 78.7529 14.376L78.7529 13.8223L77.2354 13.918C76.3809 13.9727 75.9639 14.2939 75.9639 14.8408L75.9639 14.8545Z" fill="rgb(0,0,0)" fill-opacity="0.879999995" fill-rule="evenodd" />
	</g>
</svg>
